<?xml version="1.0" encoding="UTF-8"?>
<svg xmlns="http://www.w3.org/2000/svg" version="1.1" viewBox="0 0 915.25 746.33">
  <defs>
    <style>
      .cls-1, .cls-2 {
        fill: none;
        stroke: #3a53a4;
        stroke-miterlimit: 10;
      }

      .cls-2 {
        stroke-width: .03px;
      }

      .cls-3 {
        fill: #818181;
      }
    </style>
  </defs>
  <!-- Generator: Adobe Illustrator 28.7.3, SVG Export Plug-In . SVG Version: 1.2.0 Build 164)  -->
  <g>
    <g id="Layer_1">
      <circle class="cls-2" cx="953.92" cy="658.58" r="3.5"/>
      <circle class="cls-1" cx="36.44" cy="36.7" r="5.67"/>
      <circle class="cls-1" cx="36.44" cy="708.51" r="5.67"/>
      <circle class="cls-1" cx="181" cy="36.7" r="5.67"/>
      <circle class="cls-1" cx="181" cy="708.51" r="5.67"/>
      <circle class="cls-1" cx="739.43" cy="36.7" r="5.67"/>
      <circle class="cls-1" cx="884" cy="36.7" r="5.67"/>
      <circle class="cls-1" cx="739.43" cy="708.51" r="5.67"/>
      <circle class="cls-1" cx="884" cy="708.51" r="5.67"/>
      <circle class="cls-1" cx="720.62" cy="182.83" r="4.25"/>
      <circle class="cls-1" cx="581.72" cy="182.83" r="4.25"/>
      <circle class="cls-1" cx="720.62" cy="347.24" r="4.25"/>
      <circle class="cls-1" cx="581.72" cy="347.24" r="4.25"/>
      <circle class="cls-1" cx="411.07" cy="91.39" r="4.25"/>
      <circle class="cls-1" cx="281.53" cy="91.39" r="4.25"/>
      <circle class="cls-1" cx="411.07" cy="141.84" r="4.25"/>
      <circle class="cls-1" cx="281.53" cy="141.84" r="4.25"/>
      <circle class="cls-1" cx="642.22" cy="91.39" r="4.25"/>
      <circle class="cls-1" cx="512.67" cy="91.39" r="4.25"/>
      <circle class="cls-1" cx="642.22" cy="141.84" r="4.25"/>
      <circle class="cls-1" cx="512.67" cy="141.84" r="4.25"/>
      <rect class="cls-1" x="295.42" y="95.64" width="101.76" height="41.95" rx="12" ry="12"/>
      <rect class="cls-1" x="527.65" y="95.64" width="101.76" height="41.95" rx="12" ry="12"/>
      <rect class="cls-1" x="600.29" y="194.54" width="101.76" height="140.98" rx="22" ry="22"/>
      <circle class="cls-1" cx="790.01" cy="104.1" r="4.25"/>
      <circle class="cls-1" cx="790.01" cy="161.64" r="4.25"/>
      <circle class="cls-1" cx="840.47" cy="104.1" r="4.25"/>
      <circle class="cls-1" cx="840.47" cy="161.64" r="4.25"/>
      <circle class="cls-1" cx="790.01" cy="225.03" r="4.25"/>
      <circle class="cls-1" cx="790.01" cy="282.57" r="4.25"/>
      <circle class="cls-1" cx="840.47" cy="225.03" r="4.25"/>
      <circle class="cls-1" cx="840.47" cy="282.57" r="4.25"/>
      <circle class="cls-1" cx="790.01" cy="344.84" r="4.25"/>
      <circle class="cls-1" cx="790.01" cy="402.39" r="4.25"/>
      <circle class="cls-1" cx="840.47" cy="344.84" r="4.25"/>
      <circle class="cls-1" cx="840.47" cy="402.39" r="4.25"/>
      <rect class="cls-1" x="797.05" y="111.89" width="36.38" height="41.95" rx="7.18" ry="7.18"/>
      <rect class="cls-1" x="797.05" y="232.82" width="36.38" height="41.95" rx="7.18" ry="7.18"/>
      <rect class="cls-1" x="797.05" y="352.64" width="36.38" height="41.95" rx="7.18" ry="7.18"/>
      <path class="cls-1" d="M703.61,58.56v-29.21c0-7.05,5.71-12.76,12.76-12.76v.13h176.54c1.5,0,2.94.37,4.24,1.05s2.48,1.65,3.47,2.86,1.79,2.64,2.35,4.23.86,3.34.86,5.17v685c0,1.83-.31,3.58-.86,5.17s-1.36,3.03-2.35,4.23-2.17,2.19-3.47,2.86-2.74,1.05-4.24,1.05h-176.54.29c-7.05,0-12.76-5.71-12.76-12.76v-55.45c0-7.05-5.71-12.76-12.76-12.76v.04H232.24c-7.05,0-12.76,5.71-12.76,12.76v55.45c0,7.05-5.71,12.76-12.76,12.76l.7-.04H27.72c-1.53,0-2.99-.37-4.32-1.05s-2.53-1.65-3.54-2.86-1.83-2.64-2.39-4.23-.88-3.34-.88-5.17V30.04c0-1.83.31-3.58.88-5.17s1.38-3.03,2.39-4.23,2.21-2.19,3.54-2.86,2.79-1.05,4.32-1.05h179.71l.23-.09c7.05,0,12.76,5.71,12.76,12.76v-.02,29.21-.75c0,7.05,5.71,12.76,12.76,12.76l457.69-.04c7.05,0,12.76-5.71,12.76-12.76"/>
      <rect class="cls-1" x="39.23" y="73.23" width="22.35" height="120" rx="11.17" ry="11.17"/>
      <rect class="cls-1" x="39.23" y="228.09" width="22.35" height="120" rx="11.17" ry="11.17"/>
      <rect class="cls-1" x="39.23" y="382.96" width="22.35" height="120" rx="11.17" ry="11.17"/>
      <rect class="cls-1" x="39.23" y="537.82" width="22.35" height="120" rx="11.17" ry="11.17"/>
      <rect class="cls-1" x="99.23" y="73.23" width="22.35" height="120" rx="11.17" ry="11.17"/>
      <rect class="cls-1" x="99.23" y="228.09" width="22.35" height="120" rx="11.17" ry="11.17"/>
      <rect class="cls-1" x="99.23" y="382.96" width="22.35" height="120" rx="11.17" ry="11.17"/>
      <rect class="cls-1" x="99.23" y="537.82" width="22.35" height="120" rx="11.17" ry="11.17"/>
      <rect class="cls-1" x="297.22" y="554.21" width="22.35" height="120" rx="11.17" ry="11.17" transform="translate(-305.82 922.6) rotate(-90)"/>
      <rect class="cls-1" x="452.08" y="554.21" width="22.35" height="120" rx="11.17" ry="11.17" transform="translate(-150.96 1077.46) rotate(-90)"/>
      <rect class="cls-1" x="606.94" y="554.21" width="22.35" height="120" rx="11.17" ry="11.17" transform="translate(3.9 1232.32) rotate(-90)"/>
      <rect class="cls-1" x="297.22" y="494.21" width="22.35" height="120" rx="11.17" ry="11.17" transform="translate(-245.82 862.6) rotate(-90)"/>
      <rect class="cls-1" x="452.08" y="494.21" width="22.35" height="120" rx="11.17" ry="11.17" transform="translate(-90.96 1017.46) rotate(-90)"/>
      <rect class="cls-1" x="606.94" y="494.21" width="22.35" height="120" rx="11.17" ry="11.17" transform="translate(63.9 1172.32) rotate(-90)"/>
      <circle class="cls-1" cx="547.94" cy="180.37" r="5.67"/>
      <circle class="cls-1" cx="547.94" cy="199.18" r="5.67"/>
      <circle class="cls-1" cx="547.94" cy="218" r="5.67"/>
      <circle class="cls-1" cx="547.94" cy="236.81" r="5.67"/>
      <circle class="cls-1" cx="547.94" cy="255.62" r="5.67"/>
      <circle class="cls-1" cx="547.94" cy="274.44" r="5.67"/>
      <circle class="cls-1" cx="547.94" cy="293.25" r="5.67"/>
      <circle class="cls-1" cx="547.94" cy="312.06" r="5.67"/>
      <circle class="cls-1" cx="547.94" cy="330.87" r="5.67"/>
      <circle class="cls-1" cx="547.94" cy="349.69" r="5.67"/>
      <circle class="cls-1" cx="527.94" cy="180.37" r="5.67"/>
      <circle class="cls-1" cx="527.94" cy="199.18" r="5.67"/>
      <circle class="cls-1" cx="527.94" cy="218" r="5.67"/>
      <circle class="cls-1" cx="527.94" cy="236.81" r="5.67"/>
      <circle class="cls-1" cx="527.94" cy="255.62" r="5.67"/>
      <circle class="cls-1" cx="527.94" cy="274.44" r="5.67"/>
      <circle class="cls-1" cx="527.94" cy="293.25" r="5.67"/>
      <circle class="cls-1" cx="527.94" cy="312.06" r="5.67"/>
      <circle class="cls-1" cx="527.94" cy="330.87" r="5.67"/>
      <circle class="cls-1" cx="527.94" cy="349.69" r="5.67"/>
      <circle class="cls-1" cx="411.07" cy="181.73" r="4.25"/>
      <circle class="cls-1" cx="281.53" cy="181.73" r="4.25"/>
      <circle class="cls-1" cx="411.07" cy="232.19" r="4.25"/>
      <circle class="cls-1" cx="281.53" cy="232.19" r="4.25"/>
      <rect class="cls-1" x="295.42" y="185.99" width="101.76" height="41.95" rx="12" ry="12"/>
      <circle class="cls-1" cx="507.94" cy="180.37" r="5.67"/>
      <circle class="cls-1" cx="507.94" cy="199.18" r="5.67"/>
      <circle class="cls-1" cx="507.94" cy="218" r="5.67"/>
      <circle class="cls-1" cx="507.94" cy="236.81" r="5.67"/>
      <circle class="cls-1" cx="507.94" cy="255.62" r="5.67"/>
      <circle class="cls-1" cx="507.94" cy="274.44" r="5.67"/>
      <circle class="cls-1" cx="507.94" cy="293.25" r="5.67"/>
      <circle class="cls-1" cx="507.94" cy="312.06" r="5.67"/>
      <circle class="cls-1" cx="507.94" cy="330.87" r="5.67"/>
      <circle class="cls-1" cx="507.94" cy="349.69" r="5.67"/>
      <circle class="cls-1" cx="487.94" cy="180.37" r="5.67"/>
      <circle class="cls-1" cx="487.94" cy="199.18" r="5.67"/>
      <circle class="cls-1" cx="487.94" cy="218" r="5.67"/>
      <circle class="cls-1" cx="487.94" cy="236.81" r="5.67"/>
      <circle class="cls-1" cx="487.94" cy="255.62" r="5.67"/>
      <circle class="cls-1" cx="487.94" cy="274.44" r="5.67"/>
      <circle class="cls-1" cx="487.94" cy="293.25" r="5.67"/>
      <circle class="cls-1" cx="487.94" cy="312.06" r="5.67"/>
      <circle class="cls-1" cx="487.94" cy="330.87" r="5.67"/>
      <circle class="cls-1" cx="487.94" cy="349.69" r="5.67"/>
      <rect class="cls-1" x="146.96" y="260.02" width="304.72" height="249.59" rx="50.65" ry="50.65"/>
      <circle class="cls-1" cx="790.01" cy="464.66" r="4.25"/>
      <circle class="cls-1" cx="790.01" cy="522.2" r="4.25"/>
      <circle class="cls-1" cx="840.47" cy="464.66" r="4.25"/>
      <circle class="cls-1" cx="840.47" cy="522.2" r="4.25"/>
      <circle class="cls-1" cx="790.01" cy="584.47" r="4.25"/>
      <circle class="cls-1" cx="790.01" cy="642.02" r="4.25"/>
      <circle class="cls-1" cx="840.47" cy="584.47" r="4.25"/>
      <circle class="cls-1" cx="840.47" cy="642.02" r="4.25"/>
      <rect class="cls-1" x="797.05" y="472.45" width="36.38" height="41.95" rx="7.18" ry="7.18"/>
      <rect class="cls-1" x="797.05" y="592.27" width="36.38" height="41.95" rx="7.18" ry="7.18"/>
      <circle class="cls-1" cx="567.94" cy="389.69" r="5.67"/>
      <circle class="cls-1" cx="586.76" cy="389.69" r="5.67"/>
      <circle class="cls-1" cx="605.57" cy="389.69" r="5.67"/>
      <circle class="cls-1" cx="624.38" cy="389.69" r="5.67"/>
      <circle class="cls-1" cx="643.19" cy="389.69" r="5.67"/>
      <circle class="cls-1" cx="662.01" cy="389.69" r="5.67"/>
      <circle class="cls-1" cx="680.82" cy="389.69" r="5.67"/>
      <circle class="cls-1" cx="699.63" cy="389.69" r="5.67"/>
      <circle class="cls-1" cx="718.45" cy="389.69" r="5.67"/>
      <circle class="cls-1" cx="737.26" cy="389.69" r="5.67"/>
      <circle class="cls-1" cx="567.94" cy="409.69" r="5.67"/>
      <circle class="cls-1" cx="586.76" cy="409.69" r="5.67"/>
      <circle class="cls-1" cx="605.57" cy="409.69" r="5.67"/>
      <circle class="cls-1" cx="624.38" cy="409.69" r="5.67"/>
      <circle class="cls-1" cx="643.19" cy="409.69" r="5.67"/>
      <circle class="cls-1" cx="662.01" cy="409.69" r="5.67"/>
      <circle class="cls-1" cx="680.82" cy="409.69" r="5.67"/>
      <circle class="cls-1" cx="699.63" cy="409.69" r="5.67"/>
      <circle class="cls-1" cx="718.45" cy="409.69" r="5.67"/>
      <circle class="cls-1" cx="737.26" cy="409.69" r="5.67"/>
      <circle class="cls-1" cx="567.94" cy="429.69" r="5.67"/>
      <circle class="cls-1" cx="586.76" cy="429.69" r="5.67"/>
      <circle class="cls-1" cx="605.57" cy="429.69" r="5.67"/>
      <circle class="cls-1" cx="624.38" cy="429.69" r="5.67"/>
      <circle class="cls-1" cx="643.19" cy="429.69" r="5.67"/>
      <circle class="cls-1" cx="662.01" cy="429.69" r="5.67"/>
      <circle class="cls-1" cx="680.82" cy="429.69" r="5.67"/>
      <circle class="cls-1" cx="699.63" cy="429.69" r="5.67"/>
      <circle class="cls-1" cx="718.45" cy="429.69" r="5.67"/>
      <circle class="cls-1" cx="737.26" cy="429.69" r="5.67"/>
      <circle class="cls-1" cx="567.94" cy="449.69" r="5.67"/>
      <circle class="cls-1" cx="586.76" cy="449.69" r="5.67"/>
      <circle class="cls-1" cx="605.57" cy="449.69" r="5.67"/>
      <circle class="cls-1" cx="624.38" cy="449.69" r="5.67"/>
      <circle class="cls-1" cx="643.19" cy="449.69" r="5.67"/>
      <circle class="cls-1" cx="662.01" cy="449.69" r="5.67"/>
      <circle class="cls-1" cx="680.82" cy="449.69" r="5.67"/>
      <circle class="cls-1" cx="699.63" cy="449.69" r="5.67"/>
      <circle class="cls-1" cx="718.45" cy="449.69" r="5.67"/>
      <circle class="cls-1" cx="737.26" cy="449.69" r="5.67"/>
      <rect class="cls-1" x="146.96" y="91.39" width="110.53" height="140.8" rx="22.91" ry="22.91"/>
      <path class="cls-3" d="M267.21,575.12v14.15h-3.21v-14.15h3.21Z"/>
      <path class="cls-3" d="M269.94,582.28c0-1.28-.04-2.37-.08-3.28h2.77l.15,1.41h.06c.42-.65,1.47-1.64,3.17-1.64,2.1,0,3.67,1.39,3.67,4.41v6.09h-3.19v-5.69c0-1.32-.46-2.23-1.62-2.23-.88,0-1.41.61-1.62,1.2-.08.19-.13.5-.13.8v5.92h-3.19v-6.99Z"/>
      <path class="cls-3" d="M282.25,582.28c0-1.28-.04-2.37-.08-3.28h2.77l.15,1.41h.06c.42-.65,1.47-1.64,3.17-1.64,2.1,0,3.67,1.39,3.67,4.41v6.09h-3.19v-5.69c0-1.32-.46-2.23-1.62-2.23-.88,0-1.41.61-1.62,1.2-.08.19-.13.5-.13.8v5.92h-3.19v-6.99Z"/>
      <path class="cls-3" d="M297.01,585.15c.1,1.32,1.41,1.95,2.9,1.95,1.09,0,1.97-.15,2.83-.42l.42,2.16c-1.05.42-2.33.63-3.72.63-3.49,0-5.48-2.02-5.48-5.23,0-2.6,1.62-5.48,5.19-5.48,3.32,0,4.58,2.58,4.58,5.12,0,.55-.06,1.03-.1,1.26h-6.61ZM300.77,582.97c0-.78-.34-2.08-1.81-2.08-1.34,0-1.89,1.22-1.97,2.08h3.78Z"/>
      <path class="cls-3" d="M305.64,582.38c0-1.51-.04-2.5-.08-3.38h2.75l.1,1.89h.08c.52-1.49,1.78-2.12,2.77-2.12.29,0,.44,0,.67.04v3c-.23-.04-.5-.08-.86-.08-1.18,0-1.97.63-2.18,1.62-.04.21-.06.46-.06.71v5.21h-3.19v-6.89Z"/>
      <path class="cls-3" d="M317.97,575.3c.99-.17,2.37-.29,4.33-.29s3.38.38,4.33,1.13c.9.71,1.51,1.89,1.51,3.28s-.46,2.56-1.3,3.36c-1.09,1.03-2.71,1.49-4.6,1.49-.42,0-.8-.02-1.09-.06v5.06h-3.17v-13.96ZM321.14,581.73c.27.06.61.08,1.07.08,1.7,0,2.75-.86,2.75-2.31,0-1.3-.9-2.08-2.5-2.08-.65,0-1.09.06-1.32.13v4.18Z"/>
      <path class="cls-3" d="M332.02,585.15c.1,1.32,1.41,1.95,2.9,1.95,1.09,0,1.97-.15,2.83-.42l.42,2.16c-1.05.42-2.33.63-3.72.63-3.49,0-5.48-2.02-5.48-5.23,0-2.6,1.62-5.48,5.19-5.48,3.32,0,4.58,2.58,4.58,5.12,0,.55-.06,1.03-.1,1.26h-6.61ZM335.78,582.97c0-.78-.34-2.08-1.81-2.08-1.34,0-1.89,1.22-1.97,2.08h3.78Z"/>
      <path class="cls-3" d="M346.49,589.27l-.19-1.03h-.06c-.67.82-1.72,1.26-2.94,1.26-2.08,0-3.32-1.51-3.32-3.15,0-2.67,2.39-3.95,6.03-3.93v-.15c0-.55-.29-1.32-1.87-1.32-1.05,0-2.16.36-2.83.78l-.59-2.06c.71-.4,2.12-.9,3.99-.9,3.42,0,4.51,2.02,4.51,4.43v3.57c0,.99.04,1.93.15,2.5h-2.88ZM346.11,584.42c-1.68-.02-2.98.38-2.98,1.62,0,.82.55,1.22,1.26,1.22.8,0,1.45-.52,1.66-1.18.04-.17.06-.36.06-.55v-1.11Z"/>
      <path class="cls-3" d="M359.45,589.01c-.57.25-1.64.46-2.86.46-3.32,0-5.44-2.02-5.44-5.25,0-3,2.06-5.46,5.88-5.46.84,0,1.76.15,2.44.4l-.5,2.37c-.38-.17-.94-.31-1.78-.31-1.68,0-2.77,1.2-2.75,2.88,0,1.89,1.26,2.88,2.81,2.88.76,0,1.34-.13,1.83-.32l.38,2.35Z"/>
      <path class="cls-3" d="M363.44,585.15c.1,1.32,1.41,1.95,2.9,1.95,1.09,0,1.97-.15,2.83-.42l.42,2.16c-1.05.42-2.33.63-3.72.63-3.49,0-5.48-2.02-5.48-5.23,0-2.6,1.62-5.48,5.19-5.48,3.32,0,4.58,2.58,4.58,5.12,0,.55-.06,1.03-.1,1.26h-6.61ZM367.19,582.97c0-.78-.34-2.08-1.81-2.08-1.34,0-1.89,1.22-1.97,2.08h3.78Z"/>
      <path class="cls-3" d="M370.49,591.77c.65-1.87,1.22-4.05,1.51-5.96l3.25-.21c-.69,2.14-1.64,4.35-2.65,5.98l-2.12.19Z"/>
      <path class="cls-3" d="M393.7,582.13c0,3.61-2.81,6.51-6.4,6.51s-6.47-2.9-6.47-6.51,2.86-6.47,6.47-6.47,6.4,2.9,6.4,6.47ZM382.19,582.15c0,2.94,2.27,5.29,5.08,5.29s5.06-2.35,5.06-5.29-2.27-5.29-5.06-5.29-5.08,2.35-5.08,5.29ZM389.79,580.05c-.25-.15-1.07-.46-1.99-.46-1.62,0-2.6.97-2.6,2.6,0,1.53,1.03,2.62,2.58,2.62.86,0,1.64-.21,2.1-.52l.31,1.09c-.73.48-1.68.67-2.6.67-2.46,0-3.88-1.66-3.88-3.8,0-2.41,1.93-3.91,4.09-3.91,1.01,0,2.04.29,2.31.59l-.31,1.11Z"/>
      <path class="cls-3" d="M411.97,583.85c-.06-1.7-.13-3.76-.13-5.82h-.06c-.44,1.81-1.03,3.82-1.57,5.48l-1.72,5.52h-2.5l-1.51-5.48c-.46-1.66-.94-3.67-1.28-5.52h-.04c-.08,1.91-.15,4.09-.25,5.86l-.25,5.38h-2.96l.9-14.15h4.26l1.39,4.72c.44,1.64.88,3.4,1.2,5.06h.06c.4-1.64.88-3.51,1.34-5.08l1.51-4.7h4.18l.78,14.15h-3.13l-.21-5.42Z"/>
      <path class="cls-3" d="M427.86,584.02c0,3.76-2.67,5.48-5.42,5.48-3,0-5.31-1.97-5.31-5.29s2.18-5.44,5.48-5.44,5.25,2.16,5.25,5.25ZM420.43,584.12c0,1.76.73,3.09,2.1,3.09,1.24,0,2.04-1.24,2.04-3.09,0-1.53-.59-3.09-2.04-3.09-1.53,0-2.1,1.58-2.1,3.09Z"/>
      <path class="cls-3" d="M433.41,576.06v2.94h2.29v2.35h-2.29v3.72c0,1.24.29,1.81,1.26,1.81.4,0,.71-.04.94-.08l.02,2.42c-.42.17-1.18.27-2.08.27-1.03,0-1.89-.36-2.39-.88-.59-.61-.88-1.6-.88-3.04v-4.2h-1.36v-2.35h1.36v-2.23l3.13-.71Z"/>
      <path class="cls-3" d="M437.54,574.36h3.19v5.86h.04c.34-.44.76-.78,1.26-1.05.46-.25,1.07-.4,1.66-.4,2.04,0,3.59,1.41,3.59,4.49v6h-3.19v-5.65c0-1.34-.46-2.27-1.66-2.27-.84,0-1.36.55-1.6,1.11-.08.21-.1.48-.1.71v6.09h-3.19v-14.91Z"/>
      <path class="cls-3" d="M449.96,575.3c.99-.17,2.37-.29,4.33-.29s3.38.38,4.33,1.13c.9.71,1.51,1.89,1.51,3.28s-.46,2.56-1.3,3.36c-1.09,1.03-2.71,1.49-4.6,1.49-.42,0-.8-.02-1.09-.06v5.06h-3.17v-13.96ZM453.13,581.73c.27.06.61.08,1.07.08,1.7,0,2.75-.86,2.75-2.31,0-1.3-.9-2.08-2.5-2.08-.65,0-1.09.06-1.32.13v4.18Z"/>
      <path class="cls-3" d="M467.51,589.27l-.19-1.03h-.06c-.67.82-1.72,1.26-2.94,1.26-2.08,0-3.32-1.51-3.32-3.15,0-2.67,2.39-3.95,6.03-3.93v-.15c0-.55-.29-1.32-1.87-1.32-1.05,0-2.16.36-2.83.78l-.59-2.06c.71-.4,2.12-.9,3.99-.9,3.42,0,4.51,2.02,4.51,4.43v3.57c0,.99.04,1.93.15,2.5h-2.88ZM467.13,584.42c-1.68-.02-2.98.38-2.98,1.62,0,.82.55,1.22,1.26,1.22.8,0,1.45-.52,1.66-1.18.04-.17.06-.36.06-.55v-1.11Z"/>
      <path class="cls-3" d="M482.71,574.36v11.84c0,1.16.04,2.37.08,3.07h-2.83l-.15-1.51h-.04c-.65,1.16-1.89,1.74-3.21,1.74-2.44,0-4.39-2.08-4.39-5.27-.02-3.46,2.14-5.46,4.6-5.46,1.26,0,2.25.44,2.71,1.16h.04v-5.56h3.19ZM479.52,583.35c0-.17-.02-.4-.04-.57-.19-.86-.88-1.58-1.87-1.58-1.45,0-2.2,1.3-2.2,2.92,0,1.74.86,2.83,2.18,2.83.92,0,1.66-.63,1.85-1.53.06-.23.08-.46.08-.74v-1.34Z"/>
      <path class="cls-3" d="M489.12,589.27v-1.93l1.76-1.6c2.98-2.67,4.43-4.2,4.47-5.79,0-1.11-.67-1.99-2.25-1.99-1.18,0-2.2.59-2.92,1.13l-.9-2.29c1.03-.78,2.62-1.41,4.47-1.41,3.09,0,4.79,1.81,4.79,4.28,0,2.29-1.66,4.12-3.63,5.88l-1.26,1.05v.04h5.14v2.62h-9.68Z"/>
      <path class="cls-3" d="M510.85,582.38c0,4.22-1.7,7.12-5.19,7.12s-5.08-3.17-5.1-7.03c0-3.95,1.68-7.08,5.21-7.08s5.08,3.25,5.08,6.99ZM503.78,582.46c-.02,3.13.73,4.62,1.97,4.62s1.91-1.55,1.91-4.66-.65-4.62-1.93-4.62c-1.18,0-1.97,1.49-1.95,4.66Z"/>
      <path class="cls-3" d="M512.43,589.27v-1.93l1.76-1.6c2.98-2.67,4.43-4.2,4.47-5.79,0-1.11-.67-1.99-2.25-1.99-1.18,0-2.2.59-2.92,1.13l-.9-2.29c1.03-.78,2.62-1.41,4.47-1.41,3.09,0,4.79,1.81,4.79,4.28,0,2.29-1.66,4.12-3.63,5.88l-1.26,1.05v.04h5.14v2.62h-9.68Z"/>
      <path class="cls-3" d="M533.2,578.24h-5.29l-.29,2.1c.29-.04.55-.04.88-.04,1.3,0,2.62.29,3.59.99,1.03.69,1.66,1.83,1.66,3.42,0,2.54-2.18,4.79-5.86,4.79-1.66,0-3.04-.38-3.8-.78l.57-2.39c.61.29,1.85.67,3.09.67,1.32,0,2.73-.63,2.73-2.08s-1.11-2.27-3.84-2.27c-.76,0-1.28.04-1.85.13l.9-7.16h7.52v2.62Z"/>
      <path class="cls-3" d="M534.9,591.77c.65-1.87,1.22-4.05,1.51-5.96l3.25-.21c-.69,2.14-1.64,4.35-2.65,5.98l-2.12.19Z"/>
      <path class="cls-3" d="M556.34,588.87c-.59.29-1.91.61-3.63.61-4.89,0-7.41-3.04-7.41-7.08,0-4.83,3.44-7.52,7.73-7.52,1.66,0,2.92.34,3.49.63l-.65,2.54c-.65-.27-1.55-.52-2.69-.52-2.54,0-4.51,1.53-4.51,4.68,0,2.83,1.68,4.62,4.54,4.62.97,0,2.04-.21,2.67-.46l.48,2.5Z"/>
      <path class="cls-3" d="M563.96,589.27l-.19-1.03h-.06c-.67.82-1.72,1.26-2.94,1.26-2.08,0-3.32-1.51-3.32-3.15,0-2.67,2.39-3.95,6.03-3.93v-.15c0-.55-.29-1.32-1.87-1.32-1.05,0-2.16.36-2.83.78l-.59-2.06c.71-.4,2.12-.9,3.99-.9,3.42,0,4.51,2.02,4.51,4.43v3.57c0,.99.04,1.93.15,2.5h-2.88ZM563.58,584.42c-1.68-.02-2.98.38-2.98,1.62,0,.82.55,1.22,1.26,1.22.8,0,1.45-.52,1.66-1.18.04-.17.06-.36.06-.55v-1.11Z"/>
      <path class="cls-3" d="M569.21,582.28c0-1.28-.04-2.37-.08-3.28h2.77l.15,1.41h.06c.42-.65,1.47-1.64,3.17-1.64,2.1,0,3.67,1.39,3.67,4.41v6.09h-3.19v-5.69c0-1.32-.46-2.23-1.62-2.23-.88,0-1.41.61-1.62,1.2-.08.19-.12.5-.12.8v5.92h-3.19v-6.99Z"/>
      <path class="cls-3" d="M591.66,584.02c0,3.76-2.67,5.48-5.42,5.48-3,0-5.31-1.97-5.31-5.29s2.18-5.44,5.48-5.44,5.25,2.16,5.25,5.25ZM584.23,584.12c0,1.76.74,3.09,2.1,3.09,1.24,0,2.04-1.24,2.04-3.09,0-1.53-.59-3.09-2.04-3.09-1.53,0-2.1,1.58-2.1,3.09Z"/>
      <path class="cls-3" d="M593.64,582.44c0-1.34-.04-2.5-.08-3.44h2.77l.15,1.43h.04c.76-1.09,1.93-1.66,3.42-1.66,2.25,0,4.26,1.95,4.26,5.23,0,3.74-2.37,5.5-4.66,5.5-1.24,0-2.21-.5-2.67-1.18h-.04v5.1h-3.19v-10.98ZM596.83,584.86c0,.25.02.48.06.67.21.86.94,1.51,1.87,1.51,1.39,0,2.21-1.15,2.21-2.9,0-1.64-.73-2.88-2.16-2.88-.9,0-1.7.67-1.91,1.62-.04.17-.06.38-.06.57v1.41Z"/>
      <path class="cls-3" d="M608.4,579l1.53,5.04c.17.61.38,1.36.5,1.91h.06c.15-.55.31-1.32.46-1.91l1.26-5.04h3.42l-2.39,6.76c-1.47,4.07-2.46,5.71-3.61,6.74-1.11.97-2.29,1.3-3.09,1.41l-.67-2.71c.4-.06.9-.25,1.38-.55.48-.25,1.01-.76,1.32-1.28.1-.15.17-.32.17-.46,0-.11-.02-.27-.15-.53l-3.76-9.38h3.55Z"/>
      <path class="cls-3" d="M617.09,575.12h3.21v11.46h5.63v2.69h-8.84v-14.15Z"/>
      <path class="cls-3" d="M631.02,576.14c0,.88-.67,1.6-1.72,1.6s-1.68-.71-1.66-1.6c-.02-.92.65-1.62,1.68-1.62s1.68.69,1.7,1.62ZM627.72,589.27v-10.27h3.19v10.27h-3.19Z"/>
      <path class="cls-3" d="M633.83,589.27v-7.92h-1.34v-2.35h1.34v-.4c0-1.24.38-2.6,1.3-3.44.8-.76,1.91-1.03,2.83-1.03.71,0,1.26.08,1.7.21l-.13,2.46c-.27-.08-.61-.15-1.03-.15-1.05,0-1.49.82-1.49,1.83v.53h2.06v2.35h-2.04v7.92h-3.21Z"/>
      <path class="cls-3" d="M642.88,585.15c.1,1.32,1.41,1.95,2.9,1.95,1.09,0,1.97-.15,2.83-.42l.42,2.16c-1.05.42-2.33.63-3.72.63-3.49,0-5.48-2.02-5.48-5.23,0-2.6,1.62-5.48,5.19-5.48,3.32,0,4.58,2.58,4.58,5.12,0,.55-.06,1.03-.1,1.26h-6.61ZM646.64,582.97c0-.78-.34-2.08-1.81-2.08-1.34,0-1.89,1.22-1.97,2.08h3.78Z"/>
      <path class="cls-3" d="M655.8,575.12v1.41h-1.64v4.33h-1.74v-4.33h-1.62v-1.41h5ZM661.97,580.85l-.1-2.52c-.02-.63,0-1.34-.02-2.23h-.11c-.17.78-.34,1.6-.48,2.23l-.59,2.41h-1.66l-.52-2.44c-.08-.55-.23-1.45-.36-2.2h-.11c0,.78-.02,1.57-.04,2.23l-.13,2.52h-1.64l.36-5.73h2.69l.38,1.41c.11.44.19.9.34,1.85h.02c.15-.71.27-1.28.42-1.85l.42-1.41h2.5l.31,5.73h-1.68Z"/>
      <rect class="cls-1" x="237.69" y="654.09" width="95.75" height="73.36"/>
      <rect class="cls-1" x="355.72" y="654.09" width="95.75" height="73.36"/>
      <rect class="cls-1" x="473.76" y="654.09" width="95.75" height="73.36"/>
      <rect class="cls-1" x="591.79" y="654.09" width="95.75" height="73.36"/>
      <circle class="cls-1" cx="605.88" cy="714.18" r="5.67"/>
      <circle class="cls-1" cx="674.96" cy="714.18" r="5.67"/>
      <circle class="cls-1" cx="606.38" cy="666.63" r="5.67"/>
      <circle class="cls-1" cx="674.96" cy="666.63" r="5.67"/>
      <circle class="cls-1" cx="487.09" cy="714.55" r="5.67"/>
      <circle class="cls-1" cx="556.17" cy="714.55" r="5.67"/>
      <circle class="cls-1" cx="487.59" cy="667" r="5.67"/>
      <circle class="cls-1" cx="556.17" cy="667" r="5.67"/>
      <circle class="cls-1" cx="368.71" cy="714.55" r="5.67"/>
      <circle class="cls-1" cx="437.79" cy="714.55" r="5.67"/>
      <circle class="cls-1" cx="369.21" cy="667" r="5.67"/>
      <circle class="cls-1" cx="437.79" cy="667" r="5.67"/>
      <circle class="cls-1" cx="251.02" cy="714.55" r="5.67"/>
      <circle class="cls-1" cx="320.1" cy="714.55" r="5.67"/>
      <circle class="cls-1" cx="251.52" cy="667" r="5.67"/>
      <circle class="cls-1" cx="320.1" cy="667" r="5.67"/>
      <path class="cls-3" d="M273.36,683.35c1.03-.17,2.56-.29,4.26-.29,2.1,0,3.57.31,4.58,1.11.84.67,1.3,1.66,1.3,2.96,0,1.81-1.28,3.04-2.5,3.49v.06c.99.4,1.53,1.34,1.89,2.65.44,1.6.88,3.44,1.15,3.99h-3.28c-.23-.4-.57-1.55-.99-3.3-.38-1.76-.99-2.25-2.29-2.27h-.97v5.56h-3.17v-13.96ZM276.53,689.43h1.26c1.6,0,2.54-.8,2.54-2.04,0-1.3-.88-1.95-2.35-1.97-.78,0-1.22.06-1.45.1v3.91Z"/>
      <path class="cls-3" d="M285.81,683.35c.99-.17,2.37-.29,4.33-.29s3.38.38,4.33,1.13c.9.71,1.51,1.89,1.51,3.28s-.46,2.56-1.3,3.36c-1.09,1.03-2.71,1.49-4.6,1.49-.42,0-.8-.02-1.09-.06v5.06h-3.17v-13.96ZM288.98,689.77c.27.06.61.08,1.07.08,1.7,0,2.75-.86,2.75-2.31,0-1.3-.9-2.08-2.5-2.08-.65,0-1.09.06-1.32.13v4.18Z"/>
      <path class="cls-3" d="M301.01,684.18c0,.88-.67,1.6-1.72,1.6s-1.68-.71-1.66-1.6c-.02-.92.65-1.62,1.68-1.62s1.68.69,1.7,1.62ZM297.72,697.31v-10.27h3.19v10.27h-3.19Z"/>
      <path class="cls-3" d="M384.15,683.35c.84-.17,2.54-.29,4.14-.29,1.95,0,3.15.19,4.18.8.99.53,1.7,1.49,1.7,2.77s-.73,2.44-2.33,3.02v.04c1.62.44,2.81,1.66,2.81,3.48,0,1.28-.59,2.29-1.47,3-1.03.82-2.75,1.28-5.56,1.28-1.57,0-2.75-.1-3.46-.21v-13.9ZM387.32,688.76h1.05c1.68,0,2.58-.69,2.58-1.74s-.82-1.64-2.27-1.64c-.69,0-1.09.04-1.36.08v3.3ZM387.32,695.04c.31.04.69.04,1.24.04,1.45,0,2.73-.55,2.73-2.04s-1.28-2-2.88-2h-1.09v3.99Z"/>
      <path class="cls-3" d="M408.8,691.89c-.06-1.7-.13-3.76-.13-5.82h-.06c-.44,1.8-1.03,3.82-1.57,5.48l-1.72,5.52h-2.5l-1.51-5.48c-.46-1.66-.94-3.67-1.28-5.52h-.04c-.08,1.91-.15,4.09-.25,5.86l-.25,5.38h-2.96l.9-14.15h4.26l1.39,4.72c.44,1.64.88,3.4,1.2,5.06h.06c.4-1.64.88-3.51,1.34-5.08l1.51-4.7h4.18l.78,14.15h-3.13l-.21-5.42Z"/>
      <path class="cls-3" d="M423.02,691.32h-5.21v3.36h5.82v2.62h-9.03v-14.15h8.73v2.62h-5.52v2.94h5.21v2.6Z"/>
      <path class="cls-3" d="M521.8,696.91c-.59.29-1.91.61-3.63.61-4.89,0-7.41-3.04-7.41-7.08,0-4.83,3.44-7.52,7.73-7.52,1.66,0,2.92.34,3.49.63l-.65,2.54c-.65-.27-1.55-.52-2.69-.52-2.54,0-4.51,1.53-4.51,4.68,0,2.83,1.68,4.62,4.54,4.62.97,0,2.04-.21,2.67-.46l.48,2.5Z"/>
      <path class="cls-3" d="M523.9,683.16h3.21v11.46h5.63v2.69h-8.84v-14.15Z"/>
      <path class="cls-3" d="M639.23,691.1c-.06-1.7-.13-3.76-.13-5.82h-.06c-.44,1.8-1.03,3.82-1.57,5.48l-1.72,5.52h-2.5l-1.51-5.48c-.46-1.66-.94-3.67-1.28-5.52h-.04c-.08,1.91-.15,4.09-.25,5.86l-.25,5.38h-2.96l.9-14.15h4.26l1.39,4.72c.44,1.64.88,3.4,1.2,5.06h.06c.4-1.64.88-3.51,1.34-5.08l1.51-4.7h4.18l.78,14.15h-3.13l-.21-5.42Z"/>
      <path class="cls-3" d="M645.03,682.55c.99-.17,2.37-.29,4.33-.29s3.38.38,4.33,1.13c.9.71,1.51,1.89,1.51,3.28s-.46,2.56-1.3,3.36c-1.09,1.03-2.71,1.49-4.6,1.49-.42,0-.8-.02-1.09-.06v5.06h-3.17v-13.96ZM648.2,688.98c.27.06.61.08,1.07.08,1.7,0,2.75-.86,2.75-2.31,0-1.3-.9-2.08-2.5-2.08-.65,0-1.09.06-1.32.13v4.18Z"/>
    </g>
  </g>
</svg>